<svg width="343" height="285" viewBox="0 0 343 285" fill="none" xmlns="http://www.w3.org/2000/svg">
<path d="M312.22 260.175C305.644 267.625 298.11 274.058 289.839 279.284C289.65 279.407 289.457 279.523 289.263 279.643L275.873 267.101C276.014 266.963 276.169 266.807 276.337 266.637C286.314 256.611 335.844 186.51 339.145 169.44C338.917 170.862 342.123 226.633 312.22 260.175Z" fill="#F0F0F0"/>
<path d="M292.423 281.704C292.17 281.768 291.912 281.828 291.654 281.882L281.608 272.473C281.804 272.4 282.034 272.314 282.296 272.219C286.606 270.604 299.444 265.728 312.219 260.174C325.946 254.204 339.607 247.459 342.545 243.138C341.915 244.142 322.501 274.586 292.423 281.704Z" fill="#F0F0F0"/>
<path d="M312.034 74.6407H310.603V33.1656C310.603 30.0132 310.017 26.8917 308.877 23.9794C307.737 21.067 306.066 18.4207 303.96 16.1917C301.854 13.9626 299.353 12.1944 296.601 10.9881C293.85 9.78175 290.9 9.16085 287.921 9.16085H204.892C201.913 9.16084 198.964 9.78173 196.212 10.9881C193.46 12.1944 190.96 13.9626 188.853 16.1916C186.747 18.4207 185.076 21.0669 183.936 23.9793C182.797 26.8917 182.21 30.0131 182.21 33.1655V260.701C182.21 263.854 182.797 266.975 183.936 269.888C185.076 272.8 186.747 275.446 188.853 277.675C190.96 279.904 193.46 281.672 196.212 282.879C198.964 284.085 201.913 284.706 204.892 284.706H287.921C290.9 284.706 293.849 284.085 296.601 282.879C299.353 281.673 301.854 279.904 303.96 277.675C306.066 275.446 307.737 272.8 308.877 269.888C310.017 266.975 310.603 263.854 310.603 260.702V104.163H312.034V74.6407Z" fill="#3F3D56"/>
<path d="M305.775 33.3305V260.535C305.775 262.889 305.337 265.221 304.485 267.395C303.634 269.57 302.386 271.546 300.813 273.211C299.24 274.875 297.372 276.195 295.317 277.096C293.261 277.996 291.058 278.459 288.834 278.458H205.405C203.181 278.458 200.979 277.995 198.924 277.094C196.869 276.193 195.002 274.873 193.429 273.209C191.857 271.545 190.609 269.569 189.758 267.394C188.907 265.22 188.469 262.889 188.469 260.535V33.3305C188.469 30.9768 188.907 28.6461 189.758 26.4715C190.609 24.2969 191.857 22.3211 193.429 20.6568C195.002 18.9924 196.869 17.6723 198.924 16.7716C200.979 15.871 203.181 15.4075 205.405 15.4077H215.529C215.032 16.701 214.843 18.1037 214.979 19.4924C215.114 20.8811 215.57 22.2134 216.306 23.372C217.042 24.5305 218.036 25.48 219.2 26.1367C220.364 26.7935 221.663 27.1375 222.982 27.1384H270.547C271.867 27.1397 273.167 26.7972 274.333 26.141C275.498 25.4849 276.493 24.5353 277.229 23.3761C277.966 22.2168 278.421 20.8836 278.556 19.4939C278.69 18.1042 278.499 16.7009 278 15.4077H288.834C291.058 15.4069 293.261 15.8698 295.317 16.7701C297.372 17.6705 299.24 18.9905 300.813 20.6549C302.386 22.3192 303.634 24.2953 304.485 26.4702C305.337 28.6451 305.775 30.9763 305.775 33.3305V33.3305Z" fill="white"/>
<path d="M279.823 151.398H206.492C205.207 151.397 203.976 150.856 203.068 149.895C202.159 148.934 201.649 147.63 201.647 146.271V143.719C201.649 142.36 202.159 141.056 203.068 140.095C203.976 139.134 205.207 138.593 206.492 138.592H279.823C281.108 138.593 282.339 139.134 283.247 140.095C284.156 141.056 284.667 142.36 284.668 143.719V146.271C284.667 147.63 284.156 148.934 283.247 149.895C282.339 150.856 281.108 151.397 279.823 151.398Z" fill="#F0F0F0"/>
<path d="M279.823 173.397H206.492C205.207 173.396 203.976 172.855 203.068 171.894C202.159 170.933 201.649 169.629 201.647 168.27V165.718C201.649 164.359 202.159 163.056 203.068 162.094C203.976 161.133 205.207 160.592 206.492 160.591H279.823C281.108 160.592 282.339 161.133 283.247 162.094C284.156 163.056 284.667 164.359 284.668 165.718V168.27C284.667 169.629 284.156 170.933 283.247 171.894C282.339 172.855 281.108 173.396 279.823 173.397V173.397Z" fill="#F0F0F0"/>
<path d="M283.492 146.478H210.16C208.811 146.476 207.518 145.909 206.565 144.9C205.611 143.89 205.075 142.522 205.073 141.095V138.543C205.075 137.115 205.611 135.747 206.565 134.738C207.518 133.728 208.811 133.161 210.16 133.159H283.492C284.84 133.161 286.133 133.728 287.087 134.738C288.041 135.747 288.577 137.115 288.578 138.543V141.095C288.577 142.522 288.041 143.89 287.087 144.9C286.133 145.909 284.84 146.476 283.492 146.478V146.478ZM210.16 134.185C209.068 134.186 208.022 134.645 207.25 135.462C206.478 136.279 206.043 137.387 206.042 138.543V141.095C206.043 142.25 206.478 143.358 207.25 144.175C208.022 144.992 209.068 145.451 210.16 145.453H283.492C284.583 145.451 285.63 144.992 286.402 144.175C287.174 143.358 287.608 142.25 287.61 141.095V138.543C287.608 137.387 287.174 136.279 286.402 135.462C285.63 134.645 284.583 134.186 283.492 134.185H210.16Z" fill="#3F3D56"/>
<path d="M283.492 168.477H210.16C208.811 168.476 207.518 167.908 206.565 166.899C205.611 165.889 205.075 164.521 205.073 163.094V160.542C205.075 159.114 205.611 157.746 206.565 156.737C207.518 155.727 208.811 155.16 210.16 155.158H283.492C284.84 155.16 286.133 155.727 287.087 156.737C288.041 157.746 288.577 159.114 288.578 160.542V163.094C288.577 164.521 288.041 165.889 287.087 166.899C286.133 167.908 284.84 168.476 283.492 168.477V168.477ZM210.16 156.184C209.068 156.185 208.022 156.644 207.25 157.461C206.478 158.278 206.043 159.386 206.042 160.542V163.094C206.043 164.249 206.478 165.357 207.25 166.174C208.022 166.991 209.068 167.45 210.16 167.452H283.492C284.583 167.45 285.63 166.991 286.402 166.174C287.174 165.357 287.608 164.249 287.61 163.094V160.542C287.608 159.386 287.174 158.278 286.402 157.461C285.63 156.644 284.583 156.185 283.492 156.184H210.16Z" fill="#3F3D56"/>
<path d="M305.775 33.3305V82.7506C298.355 84.8166 290.586 85.0536 283.066 83.4435C275.546 81.8334 268.475 78.419 262.397 73.4631C256.32 68.5072 251.397 62.1418 248.009 54.8567C244.62 47.5717 242.856 39.561 242.852 31.4411C242.852 29.9918 242.907 28.5575 243.017 27.1384H270.547C271.867 27.1397 273.167 26.7972 274.333 26.141C275.498 25.4849 276.493 24.5353 277.229 23.3761C277.966 22.2168 278.421 20.8836 278.556 19.4939C278.69 18.1042 278.499 16.7009 278 15.4077H288.834C291.058 15.4069 293.261 15.8698 295.317 16.7701C297.372 17.6705 299.24 18.9905 300.813 20.6549C302.386 22.3192 303.634 24.2953 304.485 26.4702C305.337 28.6451 305.775 30.9763 305.775 33.3305V33.3305Z" fill="#F0F0F0"/>
<path d="M230.624 275.372C230.624 276.413 230.588 277.442 230.508 278.458H205.405C203.181 278.458 200.979 277.995 198.924 277.094C196.869 276.193 195.002 274.873 193.429 273.209C191.857 271.545 190.609 269.569 189.758 267.394C188.907 265.22 188.469 262.889 188.469 260.535V236.233C193.731 235.508 199.079 235.979 204.155 237.614C209.232 239.249 213.921 242.01 217.91 245.714C221.899 249.417 225.096 253.978 227.288 259.092C229.481 264.206 230.618 269.756 230.624 275.372H230.624Z" fill="#E38605"/>
<path d="M28.1577 232.73C28.863 233.058 29.6627 233.077 30.3812 232.782C31.0996 232.487 31.6783 231.903 31.9902 231.157L54.6047 176.915C55.1223 175.674 55.2804 174.298 55.0591 172.962C54.8378 171.625 54.247 170.388 53.3614 169.407C52.4758 168.426 51.3352 167.745 50.0839 167.45C48.8325 167.155 47.5266 167.26 46.3313 167.75H46.3312C44.9503 168.308 43.7947 169.356 43.061 170.714C42.9443 170.929 42.8385 171.15 42.744 171.377L20.1296 225.619C19.9755 225.988 19.8916 226.386 19.8829 226.79C19.8742 227.194 19.9407 227.596 20.0787 227.972C20.2167 228.349 20.4234 228.693 20.6872 228.985C20.9509 229.278 21.2664 229.512 21.6156 229.675L28.1577 232.73Z" fill="#E38605"/>
<path d="M53.6763 199.184L31.3077 193.923L36.8442 178.423C37.7873 174.634 39.9823 171.329 43.0309 169.106C46.0795 166.884 49.7799 165.891 53.4608 166.309L53.6763 166.334L53.6763 199.184Z" fill="#2F2E41"/>
<path d="M98.8571 233.505C98.1992 233.504 97.5557 233.301 97.0044 232.921C96.4532 232.541 96.0178 232 95.7508 231.364L73.1365 177.122C72.4173 175.396 72.3504 173.444 72.9497 171.668C73.5489 169.892 74.7687 168.426 76.358 167.572C77.9473 166.718 79.7853 166.542 81.4939 167.079C83.2025 167.616 84.6517 168.825 85.5433 170.458V170.458C85.6686 170.689 85.7823 170.926 85.8837 171.17L108.498 225.412C108.861 226.283 108.882 227.27 108.557 228.158C108.232 229.045 107.587 229.76 106.764 230.144L100.001 233.302L99.9971 233.294C99.6315 233.434 99.2458 233.505 98.8571 233.505V233.505Z" fill="#E38605"/>
<path d="M67.5756 214.879C66.8049 214.88 66.0661 215.204 65.5211 215.781C64.9762 216.358 64.6697 217.14 64.6688 217.955V281.026C64.6697 281.842 64.9762 282.624 65.5211 283.2C66.0661 283.777 66.8049 284.102 67.5756 284.102H74.726C75.4967 284.102 76.2356 283.777 76.7805 283.2C77.3254 282.624 77.632 281.842 77.6328 281.026V217.955C77.632 217.14 77.3254 216.358 76.7805 215.781C76.2356 215.204 75.4967 214.88 74.726 214.879H67.5756Z" fill="#E38605"/>
<path d="M53.4329 214.879C52.6623 214.88 51.9234 215.204 51.3785 215.781C50.8335 216.358 50.527 217.14 50.5262 217.955V281.026C50.527 281.842 50.8335 282.624 51.3785 283.2C51.9234 283.777 52.6623 284.102 53.4329 284.102H60.5835C61.3542 284.102 62.093 283.777 62.638 283.2C63.1829 282.624 63.4894 281.842 63.4903 281.026V217.955C63.4894 217.14 63.1829 216.358 62.638 215.781C62.093 215.204 61.3542 214.88 60.5835 214.879H53.4329Z" fill="#E38605"/>
<path d="M63.8659 148.801C77.5115 148.801 88.5735 137.094 88.5735 122.653C88.5735 108.212 77.5115 96.5048 63.8659 96.5048C50.2202 96.5048 39.1583 108.212 39.1583 122.653C39.1583 137.094 50.2202 148.801 63.8659 148.801Z" fill="#E38605"/>
<path d="M72.0881 133.63C73.6897 133.583 75.683 133.524 77.2186 132.337C77.6758 131.969 78.0515 131.499 78.3193 130.961C78.5871 130.424 78.7406 129.83 78.7689 129.223C78.7967 128.792 78.7298 128.359 78.5734 127.959C78.4171 127.56 78.1755 127.204 77.8676 126.919C77.0656 126.202 75.8944 126.034 74.6323 126.426L75.9399 116.313L74.98 116.174L73.4427 128.063L74.2443 127.674C75.1737 127.223 76.4494 126.993 77.2422 127.702C77.4368 127.888 77.5885 128.118 77.6854 128.376C77.7822 128.633 77.8216 128.911 77.8006 129.187C77.7771 129.639 77.6619 130.08 77.4628 130.481C77.2638 130.881 76.9855 131.232 76.647 131.509C75.452 132.432 73.8632 132.551 72.0612 132.605L72.0881 133.63Z" fill="#2F2E41"/>
<path d="M85.9057 117.185H80.6873V118.211H85.9057V117.185Z" fill="#2F2E41"/>
<path d="M69.434 117.185H64.2155V118.211H69.434V117.185Z" fill="#2F2E41"/>
<path d="M88.3475 233.824L79.4547 165.121C79.3593 164.384 79.0151 163.709 78.4856 163.22C77.9561 162.731 77.2773 162.462 76.5747 162.462H69.8622C69.8902 162.292 69.9048 162.121 69.9058 161.949V159.386C69.9057 158.57 69.5995 157.787 69.0544 157.21C68.5092 156.633 67.7699 156.309 66.999 156.309H61.1854C60.4145 156.309 59.6752 156.633 59.13 157.21C58.5849 157.787 58.2787 158.57 58.2786 159.386V161.949C58.2796 162.121 58.2942 162.292 58.3222 162.462H51.6097C50.9071 162.462 50.2283 162.731 49.6988 163.22C49.1693 163.709 48.8251 164.384 48.7296 165.121L39.8368 233.824C39.7805 234.259 39.8129 234.702 39.9318 235.123C40.0507 235.544 40.2534 235.933 40.5262 236.264C40.7991 236.595 41.1357 236.86 41.5136 237.042C41.8914 237.224 42.3016 237.318 42.7166 237.318H85.4677C85.8827 237.318 86.293 237.224 86.6708 237.042C87.0486 236.86 87.3853 236.595 87.6581 236.264C87.9309 235.933 88.1336 235.544 88.2526 235.123C88.3715 234.702 88.4039 234.259 88.3475 233.824V233.824Z" fill="#2F2E41"/>
<path d="M74.5082 199.184V166.334L74.7237 166.309C78.4091 165.892 82.1136 166.888 85.1641 169.115C88.2147 171.343 90.4089 174.655 91.3482 178.45L96.8766 193.923L74.5082 199.184Z" fill="#2F2E41"/>
<path d="M62.6217 149.617L45.532 142.597C42.7375 141.449 39.9274 140.336 37.1476 139.149C35.9569 138.71 34.8601 138.026 33.9204 137.136C33.1022 136.219 32.5446 135.077 32.3114 133.841C31.7187 131.189 31.8259 128.291 31.8681 125.585C31.9009 122.625 32.1311 119.671 32.5569 116.745C33.3032 111.248 35.0559 105.957 37.7166 101.169C42.5093 92.8469 50.7667 86.5856 60.2649 87.0853C64.6622 87.3166 69.0849 88.9865 72.352 92.1683C72.6928 92.5994 73.0752 92.9916 73.4929 93.3386C73.7833 93.4538 74.0993 93.4763 74.4016 93.4031C74.8003 93.376 75.1993 93.3553 75.5987 93.341C76.9843 93.2791 78.3724 93.3407 79.7483 93.5252C82.2557 93.8119 84.6322 94.8562 86.594 96.5334C88.2267 98.0198 89.5552 100.118 89.6919 102.45C89.7579 103.521 89.5906 104.593 89.203 105.584C88.8154 106.575 88.2179 107.459 87.4564 108.167C85.4175 109.986 82.5085 109.346 80.0628 109.209L71.1033 108.707L66.5638 108.452C65.6291 108.4 65.6318 109.938 66.5638 109.991L78.6293 110.667C80.5682 110.776 82.5665 111.042 84.507 110.919C85.9981 110.848 87.4218 110.242 88.5442 109.2C89.5692 108.204 90.3328 106.943 90.7604 105.541C91.1881 104.139 91.2652 102.644 90.9842 101.201C90.3622 98.0547 88.1492 95.4516 85.555 93.903C82.0251 91.7958 77.8094 91.5939 73.8597 91.9055L74.3735 92.1307C69.9057 87.0558 63.062 84.9131 56.6372 85.6629C49.8536 86.4547 43.8202 90.4598 39.4852 95.9364C34.652 102.043 32.0182 109.656 30.9943 117.486C30.4614 121.713 30.286 125.982 30.4701 130.242C30.4625 132.121 30.7662 133.986 31.3674 135.754C32.0534 137.474 33.2937 138.882 34.8678 139.726C36.6724 140.647 38.5276 141.454 40.4235 142.141L46.7197 144.727L59.0872 149.807L62.2353 151.101C63.1078 151.459 63.4857 149.972 62.6217 149.617Z" fill="#2F2E41"/>
<path d="M35.7511 97.3474C34.2659 97.3474 32.8141 96.8813 31.5792 96.008C30.3443 95.1348 29.3819 93.8937 28.8135 92.4415C28.2452 90.9894 28.0965 89.3915 28.3862 87.8499C28.676 86.3083 29.3911 84.8923 30.4413 83.7809C31.4915 82.6695 32.8295 81.9126 34.2861 81.606C35.7428 81.2993 37.2526 81.4567 38.6247 82.0582C39.9969 82.6597 41.1696 83.6783 41.9948 84.9852C42.8199 86.2921 43.2603 87.8285 43.2603 89.4003C43.2581 91.5073 42.4662 93.5273 41.0584 95.0171C39.6507 96.5069 37.742 97.345 35.7511 97.3474ZM35.7511 82.9914C34.5534 82.9914 33.3826 83.3673 32.3867 84.0715C31.3908 84.7757 30.6146 85.7767 30.1563 86.9477C29.6979 88.1188 29.578 89.4074 29.8117 90.6506C30.0453 91.8938 30.6221 93.0358 31.469 93.9321C32.3159 94.8284 33.395 95.4388 34.5697 95.6861C35.7444 95.9334 36.962 95.8064 38.0686 95.3214C39.1751 94.8363 40.1209 94.0149 40.7863 92.9609C41.4517 91.907 41.8069 90.6679 41.8069 89.4003C41.8051 87.7011 41.1665 86.0721 40.0312 84.8706C38.8959 83.6692 37.3567 82.9933 35.7511 82.9914V82.9914Z" fill="#2F2E41"/>
<path d="M161.277 146.596L145.024 133.44L132.593 150.641L148.847 163.797L161.277 146.596Z" fill="#F0F0F0"/>
<path d="M69.4213 29.1566C71.9893 29.1545 74.5221 29.7888 76.8169 31.0087C79.1117 32.2287 81.1046 34.0003 82.6362 36.1819L92.1267 23.0494L63.6505 7.62939e-06L41.8712 30.1367L54.1444 40.0709C55.3726 36.8472 57.4833 34.0857 60.2054 32.1409C62.9276 30.1961 66.1369 29.1569 69.4213 29.1566V29.1566Z" fill="#F0F0F0"/>
<path d="M342.516 285H0.484463C0.355976 285 0.23275 284.946 0.141896 284.85C0.0510412 284.754 0 284.623 0 284.487C0 284.351 0.0510412 284.221 0.141896 284.125C0.23275 284.029 0.355976 283.975 0.484463 283.975H342.516C342.644 283.975 342.767 284.029 342.858 284.125C342.949 284.221 343 284.351 343 284.487C343 284.623 342.949 284.754 342.858 284.85C342.767 284.946 342.644 285 342.516 285Z" fill="#3F3D56"/>
<path d="M259.036 199.925H224.222C222.937 199.924 221.706 199.383 220.798 198.422C219.89 197.461 219.379 196.158 219.377 194.798V192.246C219.379 190.887 219.89 189.584 220.798 188.622C221.706 187.661 222.937 187.121 224.222 187.119H259.036C260.321 187.121 261.552 187.661 262.46 188.622C263.369 189.584 263.88 190.887 263.881 192.246V194.798C263.88 196.158 263.369 197.461 262.46 198.422C261.552 199.383 260.321 199.924 259.036 199.925V199.925Z" fill="#E38605"/>
<path d="M262.705 195.005H227.89C226.541 195.004 225.248 194.436 224.295 193.427C223.341 192.418 222.805 191.049 222.803 189.622V187.07C222.805 185.643 223.341 184.274 224.295 183.265C225.248 182.256 226.541 181.688 227.89 181.687H262.705C264.053 181.688 265.346 182.256 266.3 183.265C267.254 184.274 267.79 185.643 267.792 187.07V189.622C267.79 191.049 267.254 192.418 266.3 193.427C265.346 194.436 264.053 195.004 262.705 195.005V195.005ZM227.89 182.712C226.798 182.713 225.752 183.173 224.98 183.99C224.208 184.807 223.773 185.915 223.772 187.07V189.622C223.773 190.777 224.208 191.885 224.98 192.702C225.752 193.519 226.798 193.979 227.89 193.98H262.705C263.797 193.979 264.843 193.519 265.615 192.702C266.387 191.885 266.821 190.777 266.823 189.622V187.07C266.821 185.915 266.387 184.807 265.615 183.99C264.843 183.173 263.797 182.713 262.705 182.712H227.89Z" fill="#3F3D56"/>
</svg>
