<svg width="354" height="300" viewBox="0 0 354 300" fill="none" xmlns="http://www.w3.org/2000/svg">
<path d="M321.183 4.97491H0V294.28H321.183V4.97491Z" fill="#E38605"/>
<path d="M145.165 69.1027V103.034C145.165 103.348 145.094 103.648 144.97 103.87C144.845 104.091 144.676 104.216 144.499 104.217H144.025V280.978C144.025 285.869 142.93 290.56 140.983 294.019C139.035 297.477 136.393 299.421 133.639 299.421H71.4415C70.0778 299.421 68.7274 298.943 67.4675 298.016C66.2077 297.089 65.0629 295.731 64.0988 294.018C63.1346 292.305 62.3698 290.272 61.8481 288.035C61.3265 285.797 61.0581 283.399 61.0583 280.978V110.417H60.715C60.5905 110.417 60.4709 110.33 60.3826 110.174C60.2942 110.018 60.2443 109.806 60.2437 109.585V90.2737C60.2437 90.1637 60.2559 90.0549 60.2796 89.9534C60.3033 89.8518 60.338 89.7595 60.3817 89.6818C60.4255 89.6041 60.4775 89.5425 60.5347 89.5004C60.5918 89.4584 60.6531 89.4367 60.715 89.4367H61.0583V82.1628H60.7121C60.5814 82.1619 60.4562 82.0689 60.364 81.9042C60.2718 81.7396 60.2202 81.5167 60.2205 81.2845V62.2369C60.2208 62.0055 60.2727 61.7838 60.3648 61.6202C60.457 61.4565 60.5818 61.3644 60.7121 61.3638H61.0583V51.4344H60.7063C60.6489 51.4345 60.5922 51.4146 60.5392 51.3757C60.4862 51.3368 60.4381 51.2797 60.3975 51.2077C60.357 51.1357 60.3248 51.0503 60.3029 50.9562C60.281 50.8621 60.2698 50.7613 60.2699 50.6595V40.2651C60.2696 40.059 60.3154 39.8611 60.3972 39.7148C60.479 39.5686 60.5902 39.486 60.7063 39.4851H61.0583V18.4381C61.0584 13.5481 62.1524 8.85836 64.0996 5.4006C66.0468 1.94283 68.6878 0.000200996 71.4415 2.28884e-05H133.639C136.393 7.81409e-07 139.034 1.94241 140.982 5.40007C142.93 8.85773 144.024 13.5475 144.025 18.4381V67.9196H144.499C144.676 67.9205 144.845 68.0454 144.97 68.2671C145.094 68.4888 145.165 68.7892 145.165 69.1027V69.1027Z" fill="#3F3D56"/>
<path opacity="0.1" d="M276.002 4.97502L138.487 172.617L129.102 148.341L246.706 4.97502H276.002Z" fill="black"/>
<path opacity="0.1" d="M321.183 4.97502V29.2508L127.723 265.092L118.338 240.816L311.801 4.97502H321.183Z" fill="black"/>
<path opacity="0.1" d="M321.183 76.4335V112.147L171.781 294.281H142.481L321.183 76.4335Z" fill="black"/>
<path d="M311.292 298.946H8.77795V299.98H311.292V298.946Z" fill="#3F3D56"/>
<path d="M244.279 215.061L231.943 199.511L223.185 221.416L235.521 236.967L244.279 215.061Z" fill="#F0F0F0"/>
<path d="M235.41 242.615C234.72 242.615 234.045 242.251 233.47 241.57C232.896 240.889 232.449 239.92 232.185 238.788C231.92 237.655 231.851 236.408 231.986 235.206C232.121 234.003 232.453 232.899 232.941 232.032C233.43 231.165 234.052 230.574 234.729 230.335C235.406 230.096 236.108 230.219 236.746 230.688C237.384 231.157 237.929 231.952 238.313 232.971C238.696 233.991 238.901 235.189 238.901 236.415C238.9 238.059 238.532 239.635 237.878 240.797C237.223 241.959 236.336 242.613 235.41 242.615V242.615ZM235.41 231.249C234.835 231.249 234.272 231.552 233.794 232.12C233.315 232.687 232.942 233.494 232.722 234.438C232.502 235.382 232.444 236.421 232.557 237.423C232.669 238.425 232.946 239.346 233.353 240.068C233.76 240.791 234.278 241.283 234.842 241.482C235.407 241.681 235.992 241.579 236.523 241.188C237.055 240.797 237.509 240.135 237.829 239.285C238.149 238.436 238.319 237.437 238.319 236.415C238.318 235.046 238.012 233.732 237.466 232.764C236.921 231.795 236.181 231.251 235.41 231.249V231.249Z" fill="#3F3D56"/>
<path d="M165.878 51.983C165.188 51.983 164.513 51.6194 163.939 50.9382C163.365 50.257 162.917 49.2888 162.653 48.156C162.389 47.0232 162.32 45.7768 162.454 44.5742C162.589 43.3716 162.922 42.267 163.41 41.4C163.898 40.533 164.52 39.9426 165.197 39.7034C165.875 39.4641 166.577 39.5869 167.214 40.0561C167.852 40.5253 168.398 41.3199 168.781 42.3394C169.165 43.3589 169.37 44.5575 169.37 45.7836C169.369 47.4272 169 49.003 168.346 50.1652C167.691 51.3274 166.804 51.9811 165.878 51.983ZM165.878 40.6175C165.303 40.6175 164.741 40.9205 164.262 41.4881C163.784 42.0558 163.411 42.8626 163.191 43.8066C162.97 44.7506 162.913 45.7894 163.025 46.7915C163.137 47.7936 163.414 48.7141 163.821 49.4367C164.228 50.1592 164.747 50.6512 165.311 50.8505C165.875 51.0499 166.46 50.9476 166.992 50.5565C167.523 50.1655 167.978 49.5034 168.297 48.6538C168.617 47.8042 168.788 46.8054 168.788 45.7836C168.787 44.4139 168.48 43.1008 167.935 42.1323C167.389 41.1638 166.65 40.619 165.878 40.6175Z" fill="#F0F0F0"/>
<path d="M40.4818 261.457H39.8999V299.899H40.4818V261.457Z" fill="#3F3D56"/>
<path d="M40.1909 266.893C41.8816 266.893 43.2523 264.459 43.2523 261.457C43.2523 258.454 41.8816 256.021 40.1909 256.021C38.5001 256.021 37.1295 258.454 37.1295 261.457C37.1295 264.459 38.5001 266.893 40.1909 266.893Z" fill="#3F3D56"/>
<path d="M40.1909 285.15C40.1909 285.15 39.7535 268.446 30.7881 270.388Z" fill="#3F3D56"/>
<path d="M105.537 9.45761H95.4301C95.0216 9.45761 94.6906 10.0455 94.6906 10.7708V12.322C94.6906 13.0473 95.0216 13.6352 95.4301 13.6352H105.537C105.945 13.6352 106.276 13.0473 106.276 12.322V10.7708C106.276 10.0455 105.945 9.45761 105.537 9.45761Z" fill="#E6E8EC"/>
<path d="M109.362 13.9159C110.099 13.9159 110.697 12.855 110.697 11.5464C110.697 10.2377 110.099 9.17684 109.362 9.17684C108.625 9.17684 108.028 10.2377 108.028 11.5464C108.028 12.855 108.625 13.9159 109.362 13.9159Z" fill="#E6E8EC"/>
<path d="M139.051 22.0853V282.507C139.051 285.609 138.356 288.584 137.12 290.777C135.885 292.971 134.209 294.203 132.462 294.203H72.9237C72.0582 294.206 71.2009 293.905 70.4009 293.318C69.601 292.731 68.8741 291.87 68.2619 290.783C67.6498 289.697 67.1644 288.407 66.8336 286.986C66.5028 285.566 66.3331 284.044 66.3342 282.507V22.0853C66.3342 20.5486 66.5046 19.027 66.8358 17.6073C67.1669 16.1876 67.6523 14.8976 68.2642 13.811C68.8761 12.7244 69.6025 11.8625 70.402 11.2745C71.2015 10.6865 72.0584 10.3838 72.9237 10.3839H81.8348V12.4142C81.8348 14.9695 82.4065 17.4202 83.424 19.2271C84.4415 21.034 85.8216 22.0491 87.2606 22.0491H117.54C118.979 22.0491 120.359 21.034 121.377 19.2271C122.394 17.4202 122.966 14.9696 122.966 12.4142V10.3839H132.462C133.327 10.3834 134.184 10.6857 134.984 11.2736C135.784 11.8615 136.51 12.7234 137.122 13.8101C137.734 14.8967 138.219 16.1869 138.55 17.6068C138.881 19.0267 139.052 20.5485 139.051 22.0853Z" fill="#E38605"/>
<path d="M136.736 87.117H69.2406V145.495H136.736V87.117Z" fill="#3F3D56"/>
<path d="M136.736 184.241H69.2406V242.619H136.736V184.241Z" fill="#3F3D56"/>
<path d="M129.753 52.5037C132.967 52.5037 135.572 47.8778 135.572 42.1714C135.572 36.465 132.967 31.839 129.753 31.839C126.54 31.839 123.935 36.465 123.935 42.1714C123.935 47.8778 126.54 52.5037 129.753 52.5037Z" fill="white"/>
<path d="M132.372 41.8392H129.941V37.5219H129.566V41.8392H127.135V42.5036H129.566V46.821H129.941V42.5036H132.372V41.8392Z" fill="#3F3D56"/>
<path d="M96.4158 127.202C98.1826 138.8 104.234 145.983 104.234 145.983C104.234 145.983 107.422 134.362 105.655 122.764C103.888 111.165 97.8361 103.983 97.8361 103.983C97.8361 103.983 94.6489 115.604 96.4158 127.202Z" fill="white"/>
<path d="M99.0119 124.709C103.86 133.09 104.452 145.973 104.452 145.973C104.452 145.973 97.184 145.269 92.3357 136.888C87.4874 128.507 86.8953 115.624 86.8953 115.624C86.8953 115.624 94.1637 116.328 99.0119 124.709Z" fill="#E38605"/>
<path d="M96.4158 224.326C98.1826 235.924 104.234 243.107 104.234 243.107C104.234 243.107 107.422 231.486 105.655 219.888C103.888 208.289 97.8361 201.106 97.8361 201.106C97.8361 201.106 94.6489 212.728 96.4158 224.326Z" fill="white"/>
<path d="M99.0119 221.833C103.86 230.214 104.452 243.097 104.452 243.097C104.452 243.097 97.184 242.393 92.3357 234.012C87.4874 225.631 86.8953 212.748 86.8953 212.748C86.8953 212.748 94.1637 213.452 99.0119 221.833Z" fill="#E38605"/>
<path d="M112.489 224.326C110.722 235.924 104.67 243.107 104.67 243.107C104.67 243.107 101.483 231.486 103.25 219.888C105.017 208.289 111.069 201.106 111.069 201.106C111.069 201.106 114.256 212.728 112.489 224.326Z" fill="white"/>
<path d="M109.893 221.833C105.045 230.214 104.452 243.097 104.452 243.097C104.452 243.097 111.721 242.393 116.569 234.012C121.417 225.631 122.009 212.748 122.009 212.748C122.009 212.748 114.741 213.452 109.893 221.833Z" fill="#E38605"/>
<path d="M283.945 62.4651H278.202V52.2665H283.945V62.4651ZM278.643 61.6806H283.503V53.051H278.643V61.6806Z" fill="#3F3D56"/>
<path d="M287.332 293.434L283.415 285.976L287.615 279.02L291.532 286.478L287.332 293.434ZM284.039 286.015L287.354 292.325L290.908 286.439L287.593 280.129L284.039 286.015Z" fill="#F0F0F0"/>
<path d="M39.9472 57.5436C41.5666 57.5436 42.8794 55.2125 42.8794 52.3369C42.8794 49.4613 41.5666 47.1301 39.9472 47.1301C38.3278 47.1301 37.0151 49.4613 37.0151 52.3369C37.0151 55.2125 38.3278 57.5436 39.9472 57.5436Z" fill="#F0F0F0"/>
<path d="M39.9472 67.3787C38.2719 67.3787 36.6342 66.4965 35.2412 64.8437C33.8482 63.1909 32.7625 60.8417 32.1214 58.0931C31.4802 55.3446 31.3125 52.3202 31.6393 49.4024C31.9662 46.4845 32.7729 43.8043 33.9576 41.7007C35.1422 39.5971 36.6515 38.1645 38.2947 37.5841C39.9378 37.0037 41.641 37.3016 43.1888 38.44C44.7366 39.5785 46.0595 41.5065 46.9903 43.9801C47.921 46.4537 48.4178 49.3619 48.4178 52.3369C48.4153 56.3249 47.5221 60.1482 45.9341 62.9681C44.3461 65.7881 42.193 67.3742 39.9472 67.3787V67.3787ZM39.9472 38.4521C38.4007 38.4521 36.889 39.2665 35.6032 40.7921C34.3173 42.3178 33.3151 44.4863 32.7233 47.0234C32.1315 49.5605 31.9767 52.3523 32.2784 55.0457C32.5801 57.739 33.3248 60.2131 34.4183 62.1549C35.5118 64.0967 36.905 65.4191 38.4218 65.9549C39.9385 66.4906 41.5107 66.2156 42.9394 65.1647C44.3682 64.1138 45.5893 62.3342 46.4485 60.0508C47.3077 57.7675 47.7662 55.083 47.7662 52.3369C47.7639 48.6557 46.9393 45.1265 45.4735 42.5235C44.0076 39.9205 42.0202 38.4563 39.9472 38.4521V38.4521Z" fill="#2F2E41"/>
<path d="M283.363 110.881H187.939V124.83H283.363V110.881Z" fill="#F0F0F0"/>
<path d="M271.289 143.428H200.012V148.831H271.289V143.428Z" fill="#F0F0F0"/>
<path d="M271.289 152.132H200.012V157.534H271.289V152.132Z" fill="#F0F0F0"/>
<path d="M271.289 160.836H200.012V166.238H271.289V160.836Z" fill="#F0F0F0"/>
<path d="M271.289 169.54H200.012V174.942H271.289V169.54Z" fill="#F0F0F0"/>
</svg>
